<svg fill="none" height="1346" viewBox="0 0 2562 1346" width="2562" xmlns="http://www.w3.org/2000/svg" xmlns:xlink="http://www.w3.org/1999/xlink"><filter id="a" color-interpolation-filters="sRGB" filterUnits="userSpaceOnUse" height="1013.5" width="2331.4" x="194" y="15.9995"><feFlood flood-opacity="0" result="BackgroundImageFix"/><feColorMatrix in="SourceAlpha" type="matrix" values="0 0 0 0 0 0 0 0 0 0 0 0 0 0 0 0 0 0 127 0"/><feOffset/><feGaussianBlur stdDeviation="10"/><feColorMatrix type="matrix" values="0 0 0 0 0 0 0 0 0 0.584314 0 0 0 0 1 0 0 0 0.4 0"/><feBlend in2="BackgroundImageFix" mode="normal" result="effect1_dropShadow"/><feBlend in="SourceGraphic" in2="effect1_dropShadow" mode="normal" result="shape"/></filter><g opacity=".2" stroke="#9fa6ad" stroke-width="2"><path d="m216 1262v-1262"/><path d="m463 1262v-1262"/><path d="m171 131h2391"/><path d="m171 399h2391"/><path d="m171 667h2391"/><path d="m171 935h2391"/><path d="m171 1203h2391"/><path d="m710 1262v-1262"/><path d="m957 1262v-1262"/><path d="m1204 1262v-1262"/><path d="m1451 1262v-1262"/><path d="m1698 1262v-1262"/><path d="m1945 1262v-1262"/><path d="m2192 1262v-1262"/><path d="m2439 1262v-1262"/></g><g fill="#9fa6ad"><path d="m182.467 1325v-3.54l8.74-9.37c1.261-1.45 2.158-2.67 2.69-3.66.532-1 .798-1.93.798-2.78 0-1.14-.309-2.07-.928-2.79-.606-.73-1.472-1.09-2.597-1.09-1.25 0-2.202.43-2.858 1.28-.643.84-.965 1.97-.965 3.38h-5.269l-.037-.11c-.062-2.44.736-4.5 2.393-6.18 1.67-1.7 3.915-2.55 6.736-2.55 2.783 0 4.972.73 6.568 2.18 1.596 1.44 2.394 3.37 2.394 5.78 0 1.64-.452 3.15-1.355 4.53-.891 1.39-2.375 3.19-4.453 5.42l-4.806 5.25.037.09h7.014l.223-2.67h4.119v6.83zm38.206-10.52c0 3.57-.823 6.29-2.468 8.14-1.633 1.85-3.847 2.77-6.642 2.77-2.821 0-5.053-.92-6.699-2.77-1.645-1.85-2.467-4.57-2.467-8.14v-5.96c0-3.56.816-6.27 2.449-8.12 1.645-1.87 3.872-2.81 6.68-2.81 2.795 0 5.016.94 6.661 2.81 1.657 1.85 2.486 4.56 2.486 8.12zm-5.399-6.51c0-2.14-.322-3.71-.965-4.7-.643-1-1.571-1.5-2.783-1.5-1.225 0-2.153.49-2.784 1.48-.63.99-.946 2.56-.946 4.72v7.03c0 2.18.316 3.76.946 4.75.644.99 1.584 1.48 2.821 1.48 1.212 0 2.134-.49 2.764-1.48.631-.99.947-2.57.947-4.75zm6.718 13.78 4.564-.55v-18.3h-4.62v-3.1l10.02-1.82v23.22l4.564.55v3.25h-14.528zm15.291 0 4.564-.55v-18.3h-4.62v-3.1l10.019-1.82v23.22l4.565.55v3.25h-14.528z"/><path d="m121.367 1208.48c0 3.57-.822 6.29-2.468 8.14-1.632 1.85-3.847 2.77-6.642 2.77-2.82 0-5.053-.92-6.698-2.77-1.646-1.85-2.468-4.57-2.468-8.14v-5.96c0-3.56.816-6.27 2.449-8.12 1.645-1.87 3.872-2.81 6.68-2.81 2.795 0 5.016.94 6.661 2.81 1.657 1.85 2.486 4.56 2.486 8.12zm-5.399-6.51c0-2.14-.322-3.71-.965-4.7-.643-1-1.571-1.5-2.783-1.5-1.225 0-2.153.49-2.783 1.48-.631.99-.947 2.56-.947 4.72v7.03c0 2.18.316 3.76.947 4.75.643.99 1.583 1.48 2.82 1.48 1.212 0 2.134-.49 2.764-1.48.631-.99.947-2.57.947-4.75z"/><path d="m4.61903 947.753 4.56445-.557v-18.295h-4.62012v-3.098l10.01954-1.819v23.212l4.5644.557v3.247h-14.52827zm34.16067-7.274c0 3.575-.8226 6.291-2.4678 8.146-1.6328 1.843-3.847 2.765-6.6426 2.765-2.8203 0-5.053-.922-6.6982-2.765-1.6452-1.855-2.4678-4.571-2.4678-8.146v-5.956c0-3.562.8164-6.271 2.4492-8.127 1.6452-1.867 3.8718-2.801 6.6797-2.801 2.7956 0 5.016.934 6.6612 2.801 1.6575 1.856 2.4863 4.565 2.4863 8.127zm-5.3994-6.512c0-2.14-.3216-3.705-.9649-4.695-.6432-1.001-1.5709-1.502-2.7832-1.502-1.2246 0-2.1523.494-2.7832 1.484-.6308.989-.9463 2.56-.9463 4.713v7.032c0 2.177.3155 3.76.9463 4.75.6433.99 1.5834 1.484 2.8203 1.484 1.2123 0 2.1338-.494 2.7647-1.484.6308-.99.9463-2.573.9463-4.75zm25.5884 6.512c0 3.575-.8226 6.291-2.4678 8.146-1.6328 1.843-3.847 2.765-6.6426 2.765-2.8203 0-5.053-.922-6.6982-2.765-1.6452-1.855-2.4678-4.571-2.4678-8.146v-5.956c0-3.562.8164-6.271 2.4492-8.127 1.6452-1.867 3.8718-2.801 6.6797-2.801 2.7956 0 5.016.934 6.6611 2.801 1.6576 1.856 2.4864 4.565 2.4864 8.127zm-5.3994-6.512c0-2.14-.3217-3.705-.9649-4.695-.6432-1.001-1.5709-1.502-2.7832-1.502-1.2246 0-2.1523.494-2.7832 1.484-.6308.989-.9463 2.56-.9463 4.713v7.032c0 2.177.3155 3.76.9463 4.75.6432.99 1.5833 1.484 2.8203 1.484 1.2123 0 2.1338-.494 2.7647-1.484.6308-.99.9463-2.573.9463-4.75zm12.9341 16.309c0 1.262-.3588 2.598-1.0762 4.008-.7051 1.41-1.571 2.567-2.5977 3.47l-2.6718-1.447c.4824-.866.8535-1.763 1.1132-2.691.2598-.915.3897-1.942.3897-3.08v-4.045h4.8613zm20.4858-9.797c0 3.575-.8226 6.291-2.4678 8.146-1.6328 1.843-3.847 2.765-6.6425 2.765-2.8203 0-5.0531-.922-6.6983-2.765-1.6452-1.855-2.4677-4.571-2.4677-8.146v-5.956c0-3.562.8164-6.271 2.4492-8.127 1.6452-1.867 3.8717-2.801 6.6797-2.801 2.7955 0 5.0159.934 6.6611 2.801 1.6575 1.856 2.4863 4.565 2.4863 8.127zm-5.3994-6.512c0-2.14-.3216-3.705-.9648-4.695-.6433-1.001-1.571-1.502-2.7832-1.502-1.2247 0-2.1524.494-2.7832 1.484-.6309.989-.9463 2.56-.9463 4.713v7.032c0 2.177.3154 3.76.9463 4.75.6432.99 1.5833 1.484 2.8203 1.484 1.2122 0 2.1338-.494 2.7646-1.484.6309-.99.9463-2.573.9463-4.75zm25.5882 6.512c0 3.575-.822 6.291-2.468 8.146-1.632 1.843-3.847 2.765-6.6421 2.765-2.8204 0-5.0531-.922-6.6983-2.765-1.6452-1.855-2.4678-4.571-2.4678-8.146v-5.956c0-3.562.8164-6.271 2.4493-8.127 1.6451-1.867 3.8717-2.801 6.6796-2.801 2.7953 0 5.0163.934 6.6613 2.801 1.657 1.856 2.486 4.565 2.486 8.127zm-5.399-6.512c0-2.14-.322-3.705-.965-4.695-.643-1.001-1.571-1.502-2.7833-1.502-1.2246 0-2.1523.494-2.7832 1.484-.6308.989-.9462 2.56-.9462 4.713v7.032c0 2.177.3154 3.76.9462 4.75.6433.99 1.5834 1.484 2.8204 1.484 1.2122 0 2.1341-.494 2.7651-1.484.63-.99.946-2.573.946-4.75zm25.588 6.512c0 3.575-.822 6.291-2.468 8.146-1.632 1.843-3.847 2.765-6.642 2.765-2.82 0-5.053-.922-6.698-2.765-1.646-1.855-2.468-4.571-2.468-8.146v-5.956c0-3.562.816-6.271 2.449-8.127 1.645-1.867 3.872-2.801 6.68-2.801 2.795 0 5.016.934 6.661 2.801 1.657 1.856 2.486 4.565 2.486 8.127zm-5.399-6.512c0-2.14-.322-3.705-.965-4.695-.643-1.001-1.571-1.502-2.783-1.502-1.225 0-2.153.494-2.783 1.484-.631.989-.947 2.56-.947 4.713v7.032c0 2.177.316 3.76.947 4.75.643.99 1.583 1.484 2.82 1.484 1.212 0 2.134-.494 2.764-1.484.631-.99.947-2.573.947-4.75z"/><path d="m1.5741 683v-3.544l8.7393-9.37c1.2617-1.447 2.1585-2.666 2.6904-3.655.5319-1.002.7978-1.93.7978-2.784 0-1.138-.3092-2.065-.9277-2.783-.6061-.73-1.472-1.094-2.5977-1.094-1.2493 0-2.20178.426-2.85738 1.28-.64323.841-.96484 1.967-.96484 3.377h-5.26953l-.03711-.112c-.06185-2.436.736-4.496 2.39355-6.178 1.66993-1.695 3.91504-2.542 6.73531-2.542 2.7832 0 4.9727.723 6.5684 2.171 1.5957 1.447 2.3936 3.377 2.3936 5.789 0 1.633-.4515 3.142-1.3545 4.527-.8907 1.385-2.375 3.191-4.4532 5.418l-4.80562 5.251.03711.093h7.01371l.2226-2.672h4.1192v6.828zm38.2056-10.521c0 3.575-.8226 6.291-2.4678 8.146-1.6328 1.843-3.847 2.765-6.6426 2.765-2.8203 0-5.053-.922-6.6982-2.765-1.6452-1.855-2.4678-4.571-2.4678-8.146v-5.956c0-3.562.8164-6.271 2.4492-8.127 1.6452-1.867 3.8718-2.801 6.6797-2.801 2.7956 0 5.016.934 6.6612 2.801 1.6575 1.856 2.4863 4.565 2.4863 8.127zm-5.3994-6.512c0-2.14-.3216-3.705-.9649-4.695-.6432-1.001-1.5709-1.502-2.7832-1.502-1.2246 0-2.1523.494-2.7832 1.484-.6308.989-.9463 2.56-.9463 4.713v7.032c0 2.177.3155 3.76.9463 4.75.6432.99 1.5834 1.484 2.8203 1.484 1.2123 0 2.1338-.494 2.7647-1.484.6308-.99.9463-2.573.9463-4.75zm25.5884 6.512c0 3.575-.8226 6.291-2.4678 8.146-1.6328 1.843-3.847 2.765-6.6426 2.765-2.8203 0-5.053-.922-6.6982-2.765-1.6452-1.855-2.4678-4.571-2.4678-8.146v-5.956c0-3.562.8164-6.271 2.4492-8.127 1.6452-1.867 3.8718-2.801 6.6797-2.801 2.7956 0 5.016.934 6.6611 2.801 1.6576 1.856 2.4864 4.565 2.4864 8.127zm-5.3994-6.512c0-2.14-.3217-3.705-.9649-4.695-.6432-1.001-1.571-1.502-2.7832-1.502-1.2246 0-2.1523.494-2.7832 1.484-.6309.989-.9463 2.56-.9463 4.713v7.032c0 2.177.3154 3.76.9463 4.75.6432.99 1.5833 1.484 2.8203 1.484 1.2123 0 2.1338-.494 2.7647-1.484.6308-.99.9463-2.573.9463-4.75zm12.9341 16.309c0 1.262-.3588 2.598-1.0762 4.008-.7051 1.41-1.571 2.567-2.5977 3.47l-2.6719-1.447c.4825-.866.8536-1.763 1.1133-2.691.2598-.915.3897-1.942.3897-3.08v-4.045h4.8613zm20.4858-9.797c0 3.575-.8226 6.291-2.4678 8.146-1.6328 1.843-3.847 2.765-6.6425 2.765-2.8204 0-5.0531-.922-6.6983-2.765-1.6452-1.855-2.4678-4.571-2.4678-8.146v-5.956c0-3.562.8165-6.271 2.4493-8.127 1.6451-1.867 3.8717-2.801 6.6797-2.801 2.7955 0 5.0159.934 6.6611 2.801 1.6575 1.856 2.4863 4.565 2.4863 8.127zm-5.3994-6.512c0-2.14-.3216-3.705-.9648-4.695-.6433-1.001-1.571-1.502-2.7832-1.502-1.2247 0-2.1524.494-2.7833 1.484-.6308.989-.9462 2.56-.9462 4.713v7.032c0 2.177.3154 3.76.9462 4.75.6433.99 1.5834 1.484 2.8204 1.484 1.2122 0 2.1337-.494 2.7646-1.484s.9463-2.573.9463-4.75zm25.5882 6.512c0 3.575-.822 6.291-2.468 8.146-1.632 1.843-3.847 2.765-6.6422 2.765-2.8203 0-5.053-.922-6.6982-2.765-1.6452-1.855-2.4678-4.571-2.4678-8.146v-5.956c0-3.562.8164-6.271 2.4493-8.127 1.6451-1.867 3.8717-2.801 6.6796-2.801 2.7953 0 5.0163.934 6.6613 2.801 1.657 1.856 2.486 4.565 2.486 8.127zm-5.399-6.512c0-2.14-.322-3.705-.965-4.695-.643-1.001-1.571-1.502-2.7833-1.502-1.2246 0-2.1523.494-2.7832 1.484-.6308.989-.9463 2.56-.9463 4.713v7.032c0 2.177.3155 3.76.9463 4.75.6433.99 1.5834 1.484 2.8203 1.484 1.2122 0 2.1342-.494 2.7642-1.484.631-.99.947-2.573.947-4.75zm25.588 6.512c0 3.575-.822 6.291-2.468 8.146-1.632 1.843-3.847 2.765-6.642 2.765-2.82 0-5.053-.922-6.698-2.765-1.646-1.855-2.468-4.571-2.468-8.146v-5.956c0-3.562.816-6.271 2.449-8.127 1.645-1.867 3.872-2.801 6.68-2.801 2.795 0 5.016.934 6.661 2.801 1.657 1.856 2.486 4.565 2.486 8.127zm-5.399-6.512c0-2.14-.322-3.705-.965-4.695-.643-1.001-1.571-1.502-2.783-1.502-1.225 0-2.153.494-2.783 1.484-.631.989-.947 2.56-.947 4.713v7.032c0 2.177.316 3.76.947 4.75.643.99 1.583 1.484 2.82 1.484 1.212 0 2.134-.494 2.764-1.484.631-.99.947-2.573.947-4.75z"/><path d="m7.66003 399.191h3.04297c1.2865 0 2.2389-.334 2.8574-1.002.6185-.68.9278-1.62.9278-2.82 0-1.088-.3093-1.96-.9278-2.616s-1.5153-.983-2.6904-.983c-1.01433 0-1.86784.296-2.56055.89s-1.03906 1.373-1.03906 2.338h-5.25098l-.03711-.111c-.07422-2.116.736-3.86 2.43066-5.233 1.69467-1.373 3.79753-2.059 6.30864-2.059 2.7955 0 5.0221.668 6.6796 2.004 1.67 1.336 2.5049 3.241 2.5049 5.714 0 1.176-.3711 2.295-1.1133 3.359-.7421 1.051-1.7626 1.874-3.0615 2.468 1.4968.532 2.6348 1.348 3.4141 2.449.7917 1.101 1.1875 2.381 1.1875 3.841 0 2.474-.903 4.422-2.709 5.844-1.7936 1.411-4.0944 2.116-6.9023 2.116-2.51111 0-4.66964-.662-6.47563-1.986-1.79362-1.336-2.6595-3.216-2.59765-5.64l.0371-.112h5.25098c0 1.039.3711 1.899 1.11328 2.579.74219.668 1.68229 1.002 2.82032 1.002 1.2493 0 2.2327-.346 2.9502-1.039.7298-.692 1.0947-1.632 1.0947-2.82 0-1.423-.3587-2.462-1.0762-3.117-.705-.668-1.7503-1.002-3.1357-1.002h-3.04297zm32.11967 5.288c0 3.575-.8226 6.291-2.4678 8.146-1.6328 1.843-3.847 2.765-6.6426 2.765-2.8203 0-5.053-.922-6.6982-2.765-1.6452-1.855-2.4678-4.571-2.4678-8.146v-5.956c0-3.562.8164-6.271 2.4492-8.127 1.6452-1.867 3.8718-2.801 6.6797-2.801 2.7956 0 5.016.934 6.6612 2.801 1.6575 1.856 2.4863 4.565 2.4863 8.127zm-5.3994-6.512c0-2.14-.3216-3.705-.9649-4.695-.6432-1.001-1.5709-1.502-2.7832-1.502-1.2246 0-2.1523.494-2.7832 1.484-.6308.989-.9463 2.56-.9463 4.713v7.032c0 2.177.3155 3.76.9463 4.75.6432.99 1.5834 1.484 2.8203 1.484 1.2123 0 2.1338-.494 2.7647-1.484.6308-.99.9463-2.573.9463-4.75zm25.5884 6.512c0 3.575-.8226 6.291-2.4678 8.146-1.6328 1.843-3.847 2.765-6.6426 2.765-2.8203 0-5.053-.922-6.6982-2.765-1.6452-1.855-2.4678-4.571-2.4678-8.146v-5.956c0-3.562.8164-6.271 2.4492-8.127 1.6452-1.867 3.8718-2.801 6.6797-2.801 2.7956 0 5.016.934 6.6611 2.801 1.6576 1.856 2.4864 4.565 2.4864 8.127zm-5.3994-6.512c0-2.14-.3217-3.705-.9649-4.695-.6432-1.001-1.571-1.502-2.7832-1.502-1.2246 0-2.1523.494-2.7832 1.484-.6309.989-.9463 2.56-.9463 4.713v7.032c0 2.177.3154 3.76.9463 4.75.6432.99 1.5833 1.484 2.8203 1.484 1.2123 0 2.1338-.494 2.7647-1.484.6308-.99.9463-2.573.9463-4.75zm12.9341 16.309c0 1.262-.3588 2.598-1.0762 4.008-.7051 1.41-1.571 2.567-2.5977 3.47l-2.6719-1.447c.4825-.866.8536-1.763 1.1133-2.691.2598-.915.3897-1.942.3897-3.08v-4.045h4.8613zm20.4858-9.797c0 3.575-.8226 6.291-2.4678 8.146-1.6328 1.843-3.847 2.765-6.6425 2.765-2.8204 0-5.0531-.922-6.6983-2.765-1.6452-1.855-2.4678-4.571-2.4678-8.146v-5.956c0-3.562.8165-6.271 2.4493-8.127 1.6451-1.867 3.8717-2.801 6.6797-2.801 2.7955 0 5.0159.934 6.6611 2.801 1.6575 1.856 2.4863 4.565 2.4863 8.127zm-5.3994-6.512c0-2.14-.3216-3.705-.9648-4.695-.6433-1.001-1.571-1.502-2.7832-1.502-1.2247 0-2.1524.494-2.7833 1.484-.6308.989-.9462 2.56-.9462 4.713v7.032c0 2.177.3154 3.76.9462 4.75.6433.99 1.5834 1.484 2.8204 1.484 1.2122 0 2.1337-.494 2.7646-1.484s.9463-2.573.9463-4.75zm25.5882 6.512c0 3.575-.822 6.291-2.468 8.146-1.632 1.843-3.847 2.765-6.6422 2.765-2.8203 0-5.053-.922-6.6982-2.765-1.6452-1.855-2.4678-4.571-2.4678-8.146v-5.956c0-3.562.8164-6.271 2.4493-8.127 1.6451-1.867 3.8717-2.801 6.6796-2.801 2.7953 0 5.0163.934 6.6613 2.801 1.657 1.856 2.486 4.565 2.486 8.127zm-5.399-6.512c0-2.14-.322-3.705-.965-4.695-.643-1.001-1.571-1.502-2.7833-1.502-1.2246 0-2.1523.494-2.7832 1.484-.6308.989-.9463 2.56-.9463 4.713v7.032c0 2.177.3155 3.76.9463 4.75.6433.99 1.5834 1.484 2.8203 1.484 1.2122 0 2.1342-.494 2.7642-1.484.631-.99.947-2.573.947-4.75zm25.588 6.512c0 3.575-.822 6.291-2.468 8.146-1.632 1.843-3.847 2.765-6.642 2.765-2.82 0-5.053-.922-6.698-2.765-1.646-1.855-2.468-4.571-2.468-8.146v-5.956c0-3.562.816-6.271 2.449-8.127 1.645-1.867 3.872-2.801 6.68-2.801 2.795 0 5.016.934 6.661 2.801 1.657 1.856 2.486 4.565 2.486 8.127zm-5.399-6.512c0-2.14-.322-3.705-.965-4.695-.643-1.001-1.571-1.502-2.783-1.502-1.225 0-2.153.494-2.783 1.484-.631.989-.947 2.56-.947 4.713v7.032c0 2.177.316 3.76.947 4.75.643.99 1.583 1.484 2.82 1.484 1.212 0 2.134-.494 2.764-1.484.631-.99.947-2.573.947-4.75z"/><path d="m18.16 136.943h3.0616v3.6h-3.0616v2.653l2.876.557v3.247h-11.16991v-3.247l2.89451-.557v-2.653h-11.02146l-.25977-2.653 11.22563-17.906h5.455zm-11.6152 0h6.2158v-9.741l-.1113-.037-.4453.779zm34.2349-.464c0 3.575-.8226 6.291-2.4678 8.146-1.6328 1.843-3.847 2.765-6.6426 2.765-2.8203 0-5.053-.922-6.6982-2.765-1.6452-1.855-2.4678-4.571-2.4678-8.146v-5.956c0-3.562.8164-6.271 2.4492-8.127 1.6452-1.867 3.8718-2.801 6.6797-2.801 2.7956 0 5.016.934 6.6612 2.801 1.6575 1.856 2.4863 4.565 2.4863 8.127zm-5.3994-6.512c0-2.14-.3216-3.705-.9649-4.695-.6432-1.001-1.5709-1.502-2.7832-1.502-1.2246 0-2.1523.494-2.7832 1.484-.6308.989-.9463 2.56-.9463 4.713v7.032c0 2.177.3155 3.76.9463 4.75.6432.99 1.5834 1.484 2.8203 1.484 1.2123 0 2.1338-.494 2.7647-1.484.6308-.99.9463-2.573.9463-4.75zm25.5884 6.512c0 3.575-.8226 6.291-2.4678 8.146-1.6328 1.843-3.847 2.765-6.6426 2.765-2.8203 0-5.053-.922-6.6982-2.765-1.6452-1.855-2.4678-4.571-2.4678-8.146v-5.956c0-3.562.8164-6.271 2.4492-8.127 1.6452-1.867 3.8718-2.801 6.6797-2.801 2.7956 0 5.016.934 6.6611 2.801 1.6576 1.856 2.4864 4.565 2.4864 8.127zm-5.3994-6.512c0-2.14-.3217-3.705-.9649-4.695-.6432-1.001-1.571-1.502-2.7832-1.502-1.2246 0-2.1523.494-2.7832 1.484-.6309.989-.9463 2.56-.9463 4.713v7.032c0 2.177.3154 3.76.9463 4.75.6432.99 1.5833 1.484 2.8203 1.484 1.2123 0 2.1338-.494 2.7647-1.484.6308-.99.9463-2.573.9463-4.75zm12.9341 16.309c0 1.262-.3588 2.598-1.0762 4.008-.7051 1.41-1.571 2.567-2.5977 3.47l-2.6719-1.447c.4825-.866.8536-1.763 1.1133-2.691.2598-.915.3897-1.942.3897-3.08v-4.045h4.8613zm20.4858-9.797c0 3.575-.8226 6.291-2.4678 8.146-1.6328 1.843-3.847 2.765-6.6425 2.765-2.8204 0-5.0531-.922-6.6983-2.765-1.6452-1.855-2.4678-4.571-2.4678-8.146v-5.956c0-3.562.8165-6.271 2.4493-8.127 1.6451-1.867 3.8717-2.801 6.6797-2.801 2.7955 0 5.0159.934 6.6611 2.801 1.6575 1.856 2.4863 4.565 2.4863 8.127zm-5.3994-6.512c0-2.14-.3216-3.705-.9648-4.695-.6433-1.001-1.571-1.502-2.7832-1.502-1.2247 0-2.1524.494-2.7833 1.484-.6308.989-.9462 2.56-.9462 4.713v7.032c0 2.177.3154 3.76.9462 4.75.6433.99 1.5834 1.484 2.8204 1.484 1.2122 0 2.1337-.494 2.7646-1.484s.9463-2.573.9463-4.75zm25.5882 6.512c0 3.575-.822 6.291-2.468 8.146-1.632 1.843-3.847 2.765-6.642 2.765-2.8205 0-5.0532-.922-6.6984-2.765-1.6452-1.855-2.4678-4.571-2.4678-8.146v-5.956c0-3.562.8164-6.271 2.4493-8.127 1.6451-1.867 3.8717-2.801 6.6799-2.801 2.795 0 5.016.934 6.661 2.801 1.657 1.856 2.486 4.565 2.486 8.127zm-5.399-6.512c0-2.14-.322-3.705-.965-4.695-.643-1.001-1.571-1.502-2.783-1.502-1.2249 0-2.1526.494-2.7835 1.484-.6308.989-.9463 2.56-.9463 4.713v7.032c0 2.177.3155 3.76.9463 4.75.6433.99 1.5834 1.484 2.8205 1.484 1.212 0 2.134-.494 2.764-1.484.631-.99.947-2.573.947-4.75zm25.588 6.512c0 3.575-.822 6.291-2.468 8.146-1.632 1.843-3.847 2.765-6.642 2.765-2.82 0-5.053-.922-6.698-2.765-1.646-1.855-2.468-4.571-2.468-8.146v-5.956c0-3.562.816-6.271 2.449-8.127 1.645-1.867 3.872-2.801 6.68-2.801 2.795 0 5.016.934 6.661 2.801 1.657 1.856 2.486 4.565 2.486 8.127zm-5.399-6.512c0-2.14-.322-3.705-.965-4.695-.643-1.001-1.571-1.502-2.783-1.502-1.225 0-2.153.494-2.783 1.484-.631.989-.947 2.56-.947 4.713v7.032c0 2.177.316 3.76.947 4.75.643.99 1.583 1.484 2.82 1.484 1.212 0 2.134-.494 2.764-1.484.631-.99.947-2.573.947-4.75z"/><path d="m427.371 1325v-3.54l8.739-9.37c1.262-1.45 2.159-2.67 2.691-3.66.531-1 .797-1.93.797-2.78 0-1.14-.309-2.07-.927-2.79-.606-.73-1.472-1.09-2.598-1.09-1.249 0-2.202.43-2.857 1.28-.644.84-.965 1.97-.965 3.38h-5.27l-.037-.11c-.062-2.44.736-4.5 2.394-6.18 1.67-1.7 3.915-2.55 6.735-2.55 2.783 0 4.973.73 6.568 2.18 1.596 1.44 2.394 3.37 2.394 5.78 0 1.64-.452 3.15-1.355 4.53-.89 1.39-2.375 3.19-4.453 5.42l-4.805 5.25.037.09h7.013l.223-2.67h4.119v6.83zm38.205-10.52c0 3.57-.822 6.29-2.467 8.14-1.633 1.85-3.847 2.77-6.643 2.77-2.82 0-5.053-.92-6.698-2.77s-2.468-4.57-2.468-8.14v-5.96c0-3.56.816-6.27 2.449-8.12 1.645-1.87 3.872-2.81 6.68-2.81 2.796 0 5.016.94 6.661 2.81 1.658 1.85 2.486 4.56 2.486 8.12zm-5.399-6.51c0-2.14-.322-3.71-.965-4.7-.643-1-1.571-1.5-2.783-1.5-1.225 0-2.152.49-2.783 1.48s-.947 2.56-.947 4.72v7.03c0 2.18.316 3.76.947 4.75.643.99 1.583 1.48 2.82 1.48 1.212 0 2.134-.49 2.765-1.48s.946-2.57.946-4.75zm6.718 13.78 4.565-.55v-18.3h-4.62v-3.1l10.019-1.82v23.22l4.565.55v3.25h-14.529zm15.439 3.25v-3.54l8.74-9.37c1.261-1.45 2.158-2.67 2.69-3.66.532-1 .798-1.93.798-2.78 0-1.14-.309-2.07-.928-2.79-.606-.73-1.472-1.09-2.598-1.09-1.249 0-2.201.43-2.857 1.28-.643.84-.965 1.97-.965 3.38h-5.269l-.038-.11c-.061-2.44.737-4.5 2.394-6.18 1.67-1.7 3.915-2.55 6.735-2.55 2.784 0 4.973.73 6.569 2.18 1.595 1.44 2.393 3.37 2.393 5.78 0 1.64-.451 3.15-1.354 4.53-.891 1.39-2.375 3.19-4.453 5.42l-4.806 5.25.037.09h7.014l.222-2.67h4.12v6.83z"/><path d="m674.556 1325v-3.54l8.74-9.37c1.261-1.45 2.158-2.67 2.69-3.66.532-1 .798-1.93.798-2.78 0-1.14-.309-2.07-.928-2.79-.606-.73-1.472-1.09-2.597-1.09-1.25 0-2.202.43-2.858 1.28-.643.84-.965 1.97-.965 3.38h-5.269l-.037-.11c-.062-2.44.736-4.5 2.393-6.18 1.67-1.7 3.915-2.55 6.736-2.55 2.783 0 4.972.73 6.568 2.18 1.596 1.44 2.393 3.37 2.393 5.78 0 1.64-.451 3.15-1.354 4.53-.891 1.39-2.375 3.19-4.453 5.42l-4.806 5.25.037.09h7.014l.223-2.67h4.119v6.83zm38.206-10.52c0 3.57-.823 6.29-2.468 8.14-1.633 1.85-3.847 2.77-6.642 2.77-2.821 0-5.053-.92-6.699-2.77-1.645-1.85-2.467-4.57-2.467-8.14v-5.96c0-3.56.816-6.27 2.449-8.12 1.645-1.87 3.872-2.81 6.679-2.81 2.796 0 5.016.94 6.662 2.81 1.657 1.85 2.486 4.56 2.486 8.12zm-5.399-6.51c0-2.14-.322-3.71-.965-4.7-.644-1-1.571-1.5-2.784-1.5-1.224 0-2.152.49-2.783 1.48s-.946 2.56-.946 4.72v7.03c0 2.18.315 3.76.946 4.75.644.99 1.584 1.48 2.821 1.48 1.212 0 2.133-.49 2.764-1.48s.947-2.57.947-4.75zm6.718 13.78 4.564-.55v-18.3h-4.62v-3.1l10.02-1.82v23.22l4.564.55v3.25h-14.528zm21.154-12.56h3.043c1.286 0 2.239-.33 2.857-1 .619-.68.928-1.62.928-2.82 0-1.09-.309-1.96-.928-2.62-.618-.65-1.515-.98-2.69-.98-1.015 0-1.868.3-2.561.89s-1.039 1.37-1.039 2.34h-5.251l-.037-.11c-.074-2.12.736-3.86 2.431-5.24 1.694-1.37 3.797-2.06 6.308-2.06 2.796 0 5.022.67 6.68 2.01 1.67 1.33 2.505 3.24 2.505 5.71 0 1.18-.371 2.3-1.114 3.36-.742 1.05-1.762 1.88-3.061 2.47 1.497.53 2.635 1.35 3.414 2.45.792 1.1 1.187 2.38 1.187 3.84 0 2.47-.902 4.42-2.708 5.84-1.794 1.41-4.095 2.12-6.903 2.12-2.511 0-4.669-.66-6.475-1.99-1.794-1.33-2.66-3.21-2.598-5.64l.037-.11h5.251c0 1.04.371 1.9 1.113 2.58.742.67 1.683 1 2.821 1 1.249 0 2.232-.34 2.95-1.04.73-.69 1.095-1.63 1.095-2.82 0-1.42-.359-2.46-1.077-3.11-.705-.67-1.75-1.01-3.135-1.01h-3.043z"/><path d="m921.167 1325v-3.54l8.739-9.37c1.262-1.45 2.159-2.67 2.69-3.66.532-1 .798-1.93.798-2.78 0-1.14-.309-2.07-.927-2.79-.607-.73-1.472-1.09-2.598-1.09-1.249 0-2.202.43-2.858 1.28-.643.84-.964 1.97-.964 3.38h-5.27l-.037-.11c-.062-2.44.736-4.5 2.394-6.18 1.669-1.7 3.915-2.55 6.735-2.55 2.783 0 4.973.73 6.568 2.18 1.596 1.44 2.394 3.37 2.394 5.78 0 1.64-.452 3.15-1.355 4.53-.89 1.39-2.375 3.19-4.453 5.42l-4.806 5.25.038.09h7.013l.223-2.67h4.119v6.83zm38.205-10.52c0 3.57-.822 6.29-2.467 8.14-1.633 1.85-3.847 2.77-6.643 2.77-2.82 0-5.053-.92-6.698-2.77s-2.468-4.57-2.468-8.14v-5.96c0-3.56.816-6.27 2.449-8.12 1.645-1.87 3.872-2.81 6.68-2.81 2.795 0 5.016.94 6.661 2.81 1.658 1.85 2.486 4.56 2.486 8.12zm-5.399-6.51c0-2.14-.322-3.71-.965-4.7-.643-1-1.571-1.5-2.783-1.5-1.225 0-2.153.49-2.783 1.48-.631.99-.947 2.56-.947 4.72v7.03c0 2.18.316 3.76.947 4.75.643.99 1.583 1.48 2.82 1.48 1.212 0 2.134-.49 2.765-1.48.63-.99.946-2.57.946-4.75zm6.718 13.78 4.565-.55v-18.3h-4.62v-3.1l10.019-1.82v23.22l4.564.55v3.25h-14.528zm31.433-6.81h3.062v3.6h-3.062v2.66l2.876.55v3.25h-11.17v-3.25l2.895-.55v-2.66h-11.022l-.259-2.65 11.225-17.91h5.455zm-11.615 0h6.216v-9.74l-.111-.03-.446.77z"/><path d="m1168.74 1325v-3.54l8.74-9.37c1.26-1.45 2.16-2.67 2.69-3.66.53-1 .8-1.93.8-2.78 0-1.14-.31-2.07-.93-2.79-.6-.73-1.47-1.09-2.6-1.09-1.25 0-2.2.43-2.85 1.28-.65.84-.97 1.97-.97 3.38h-5.27l-.03-.11c-.07-2.44.73-4.5 2.39-6.18 1.67-1.7 3.91-2.55 6.73-2.55 2.79 0 4.98.73 6.57 2.18 1.6 1.44 2.4 3.37 2.4 5.78 0 1.64-.46 3.15-1.36 4.53-.89 1.39-2.37 3.19-4.45 5.42l-4.81 5.25.04.09h7.01l.23-2.67h4.12v6.83zm38.21-10.52c0 3.57-.83 6.29-2.47 8.14-1.63 1.85-3.85 2.77-6.64 2.77-2.82 0-5.06-.92-6.7-2.77-1.65-1.85-2.47-4.57-2.47-8.14v-5.96c0-3.56.82-6.27 2.45-8.12 1.65-1.87 3.87-2.81 6.68-2.81 2.8 0 5.02.94 6.66 2.81 1.66 1.85 2.49 4.56 2.49 8.12zm-5.4-6.51c0-2.14-.32-3.71-.97-4.7-.64-1-1.57-1.5-2.78-1.5-1.22 0-2.15.49-2.78 1.48s-.95 2.56-.95 4.72v7.03c0 2.18.32 3.76.95 4.75.64.99 1.58 1.48 2.82 1.48 1.21 0 2.13-.49 2.76-1.48s.95-2.57.95-4.75zm6.72 13.78 4.56-.55v-18.3h-4.62v-3.1l10.02-1.82v23.22l4.56.55v3.25h-14.52zm29.56-17.61-.49-1.81h-7.27l-.76 6.23c.51-.37 1.11-.67 1.82-.91.7-.25 1.48-.38 2.34-.39 2.59-.04 4.6.75 6.03 2.36 1.42 1.61 2.13 3.85 2.13 6.71 0 2.6-.79 4.76-2.36 6.48-1.56 1.72-3.81 2.58-6.75 2.58-2.48 0-4.6-.67-6.37-2.02-1.76-1.36-2.62-3.23-2.56-5.61l.04-.09 5.2-.26c0 1.2.34 2.14 1.02 2.82.68.67 1.57 1 2.67 1 1.26 0 2.19-.45 2.8-1.35s.91-2.07.91-3.51c0-1.56-.32-2.81-.97-3.75-.64-.94-1.6-1.41-2.87-1.41-1.03 0-1.82.2-2.38.58-.54.38-.93.9-1.17 1.56l-4.78-.32 1.56-15.05h15.55v6.16z"/><path d="m1415.26 1325v-3.54l8.74-9.37c1.26-1.45 2.16-2.67 2.69-3.66.53-1 .8-1.93.8-2.78 0-1.14-.31-2.07-.93-2.79-.61-.73-1.47-1.09-2.6-1.09-1.25 0-2.2.43-2.86 1.28-.64.84-.96 1.97-.96 3.38h-5.27l-.04-.11c-.06-2.44.74-4.5 2.4-6.18 1.67-1.7 3.91-2.55 6.73-2.55 2.78 0 4.97.73 6.57 2.18 1.6 1.44 2.39 3.37 2.39 5.78 0 1.64-.45 3.15-1.35 4.53-.89 1.39-2.38 3.19-4.45 5.42l-4.81 5.25.04.09h7.01l.22-2.67h4.12v6.83zm38.21-10.52c0 3.57-.83 6.29-2.47 8.14s-3.85 2.77-6.65 2.77c-2.82 0-5.05-.92-6.69-2.77-1.65-1.85-2.47-4.57-2.47-8.14v-5.96c0-3.56.82-6.27 2.45-8.12 1.64-1.87 3.87-2.81 6.68-2.81 2.79 0 5.01.94 6.66 2.81 1.66 1.85 2.49 4.56 2.49 8.12zm-5.4-6.51c0-2.14-.33-3.71-.97-4.7-.64-1-1.57-1.5-2.78-1.5-1.23 0-2.15.49-2.79 1.48-.63.99-.94 2.56-.94 4.72v7.03c0 2.18.31 3.76.94 4.75.65.99 1.59 1.48 2.82 1.48 1.22 0 2.14-.49 2.77-1.48s.95-2.57.95-4.75zm6.71 13.78 4.57-.55v-18.3h-4.62v-3.1l10.02-1.82v23.22l4.56.55v3.25h-14.53zm26.61-24.16c1.02 0 1.95.1 2.8.3.87.19 1.74.47 2.6.84l-.94 3.95c-.78-.27-1.5-.48-2.16-.61-.65-.15-1.41-.23-2.26-.23-1.61 0-2.9.59-3.88 1.77-.96 1.17-1.45 2.9-1.46 5.19l.05.09c.61-.63 1.37-1.12 2.3-1.48.94-.36 1.99-.54 3.14-.54 2.41 0 4.3.86 5.68 2.58 1.37 1.71 2.06 3.89 2.06 6.55 0 2.72-.85 4.97-2.55 6.74-1.69 1.77-3.88 2.65-6.56 2.65-2.85 0-5.17-.97-6.96-2.89-1.8-1.95-2.69-4.63-2.69-8.06v-4.75c0-3.82 1.01-6.79 3.02-8.9 2.03-2.13 4.63-3.2 7.81-3.2zm-1.24 13.38c-1 0-1.86.16-2.56.49-.71.32-1.25.76-1.63 1.31v1.8c0 2.14.38 3.79 1.15 4.94.78 1.15 1.81 1.72 3.1 1.72 1.11 0 2-.5 2.67-1.52.68-1.02 1.02-2.26 1.02-3.71 0-1.5-.34-2.71-1.02-3.64-.68-.92-1.59-1.39-2.73-1.39z"/><path d="m1662.59 1325v-3.54l8.74-9.37c1.26-1.45 2.16-2.67 2.69-3.66.54-1 .8-1.93.8-2.78 0-1.14-.31-2.07-.93-2.79-.6-.73-1.47-1.09-2.59-1.09-1.25 0-2.21.43-2.86 1.28-.65.84-.97 1.97-.97 3.38h-5.27l-.03-.11c-.07-2.44.73-4.5 2.39-6.18 1.67-1.7 3.92-2.55 6.74-2.55 2.78 0 4.97.73 6.56 2.18 1.6 1.44 2.4 3.37 2.4 5.78 0 1.64-.45 3.15-1.36 4.53-.89 1.39-2.37 3.19-4.45 5.42l-4.81 5.25.04.09h7.02l.22-2.67h4.12v6.83zm38.21-10.52c0 3.57-.82 6.29-2.47 8.14-1.63 1.85-3.85 2.77-6.64 2.77-2.82 0-5.05-.92-6.7-2.77-1.64-1.85-2.47-4.57-2.47-8.14v-5.96c0-3.56.82-6.27 2.45-8.12 1.65-1.87 3.87-2.81 6.68-2.81 2.8 0 5.02.94 6.66 2.81 1.66 1.85 2.49 4.56 2.49 8.12zm-5.4-6.51c0-2.14-.32-3.71-.97-4.7-.64-1-1.57-1.5-2.78-1.5-1.22 0-2.15.49-2.78 1.48s-.95 2.56-.95 4.72v7.03c0 2.18.32 3.76.95 4.75.64.99 1.58 1.48 2.82 1.48 1.21 0 2.13-.49 2.76-1.48s.95-2.57.95-4.75zm6.72 13.78 4.56-.55v-18.3h-4.62v-3.1l10.02-1.82v23.22l4.57.55v3.25h-14.53zm34.08-19.59c-2.89 3.39-4.87 6.55-5.93 9.48-1.05 2.93-1.81 6.47-2.27 10.61l-.26 2.75h-5.41l.26-2.75c.42-3.97 1.32-7.61 2.7-10.92 1.39-3.33 3.29-6.39 5.7-9.17h-9.52l-.2 2.67h-4.16v-6.85h19.09z"/><path d="m1909.52 1325v-3.54l8.74-9.37c1.26-1.45 2.16-2.67 2.69-3.66.53-1 .8-1.93.8-2.78 0-1.14-.31-2.07-.93-2.79-.61-.73-1.47-1.09-2.6-1.09-1.25 0-2.2.43-2.86 1.28-.64.84-.96 1.97-.96 3.38h-5.27l-.04-.11c-.06-2.44.74-4.5 2.4-6.18 1.67-1.7 3.91-2.55 6.73-2.55 2.78 0 4.97.73 6.57 2.18 1.6 1.44 2.39 3.37 2.39 5.78 0 1.64-.45 3.15-1.35 4.53-.89 1.39-2.38 3.19-4.45 5.42l-4.81 5.25.04.09h7.01l.22-2.67h4.12v6.83zm38.2-10.52c0 3.57-.82 6.29-2.46 8.14s-3.85 2.77-6.65 2.77c-2.82 0-5.05-.92-6.69-2.77-1.65-1.85-2.47-4.57-2.47-8.14v-5.96c0-3.56.81-6.27 2.45-8.12 1.64-1.87 3.87-2.81 6.68-2.81 2.79 0 5.01.94 6.66 2.81 1.66 1.85 2.48 4.56 2.48 8.12zm-5.39-6.51c0-2.14-.33-3.71-.97-4.7-.64-1-1.57-1.5-2.78-1.5-1.23 0-2.15.49-2.79 1.48-.63.99-.94 2.56-.94 4.72v7.03c0 2.18.31 3.76.94 4.75.65.99 1.59 1.48 2.82 1.48 1.22 0 2.14-.49 2.77-1.48s.95-2.57.95-4.75zm6.71 13.78 4.57-.55v-18.3h-4.62v-3.1l10.02-1.82v23.22l4.56.55v3.25h-14.53zm33.13-16.6c0 1.34-.36 2.54-1.08 3.58s-1.7 1.85-2.95 2.43c1.43.6 2.57 1.47 3.39 2.6.83 1.12 1.25 2.41 1.25 3.86 0 2.49-.85 4.42-2.54 5.77-1.7 1.33-3.91 2-6.65 2s-4.97-.67-6.68-2c-1.69-1.35-2.54-3.28-2.54-5.77 0-1.46.41-2.75 1.23-3.86.82-1.13 1.96-2 3.39-2.6-1.26-.58-2.24-1.39-2.95-2.43-.7-1.04-1.06-2.24-1.06-3.58 0-2.4.79-4.26 2.36-5.57 1.57-1.32 3.64-1.99 6.22-1.99 2.57 0 4.65.67 6.23 1.99 1.58 1.31 2.38 3.17 2.38 5.57zm-4.79 12.09c0-1.21-.36-2.18-1.08-2.91-.7-.73-1.62-1.09-2.74-1.09-1.13 0-2.04.36-2.73 1.09s-1.04 1.7-1.04 2.91c0 1.24.35 2.22 1.04 2.94.69.7 1.61 1.05 2.76 1.05 1.13 0 2.04-.36 2.73-1.07.71-.72 1.06-1.69 1.06-2.92zm-.63-11.85c0-1.09-.29-1.96-.87-2.62-.57-.67-1.35-1-2.32-1-.99 0-1.77.33-2.32.98s-.82 1.52-.82 2.64.28 2.02.84 2.69c.55.65 1.33.98 2.33.98.98 0 1.75-.33 2.3-.98.57-.67.86-1.57.86-2.69z"/><path d="m2156.28 1325v-3.54l8.74-9.37c1.26-1.45 2.16-2.67 2.69-3.66.53-1 .8-1.93.8-2.78 0-1.14-.31-2.07-.93-2.79-.61-.73-1.47-1.09-2.6-1.09-1.25 0-2.2.43-2.86 1.28-.64.84-.96 1.97-.96 3.38h-5.27l-.04-.11c-.06-2.44.74-4.5 2.39-6.18 1.67-1.7 3.92-2.55 6.74-2.55 2.78 0 4.97.73 6.57 2.18 1.59 1.44 2.39 3.37 2.39 5.78 0 1.64-.45 3.15-1.35 4.53-.89 1.39-2.38 3.19-4.46 5.42l-4.8 5.25.04.09h7.01l.22-2.67h4.12v6.83zm38.2-10.52c0 3.57-.82 6.29-2.46 8.14s-3.85 2.77-6.65 2.77c-2.82 0-5.05-.92-6.69-2.77-1.65-1.85-2.47-4.57-2.47-8.14v-5.96c0-3.56.81-6.27 2.45-8.12 1.64-1.87 3.87-2.81 6.68-2.81 2.79 0 5.01.94 6.66 2.81 1.65 1.85 2.48 4.56 2.48 8.12zm-5.4-6.51c0-2.14-.32-3.71-.96-4.7-.64-1-1.57-1.5-2.78-1.5-1.23 0-2.16.49-2.79 1.48s-.94 2.56-.94 4.72v7.03c0 2.18.31 3.76.94 4.75.65.99 1.59 1.48 2.82 1.48 1.22 0 2.14-.49 2.77-1.48s.94-2.57.94-4.75zm6.72 13.78 4.57-.55v-18.3h-4.62v-3.1l10.02-1.82v23.22l4.56.55v3.25h-14.53zm23.38-.52c1.45 0 2.62-.55 3.51-1.65.89-1.11 1.34-2.77 1.34-4.99v-.41c-.61.78-1.33 1.38-2.18 1.78-.84.4-1.74.6-2.7.6-2.53 0-4.51-.82-5.94-2.47-1.44-1.66-2.15-3.94-2.15-6.85 0-2.73.85-5.02 2.56-6.86 1.72-1.86 3.89-2.79 6.51-2.79 2.76 0 5 .96 6.72 2.86 1.72 1.89 2.58 4.56 2.58 8v5.86c0 3.5-.96 6.22-2.88 8.17-1.91 1.94-4.36 2.91-7.37 2.91-.94 0-1.91-.1-2.91-.3-.99-.18-1.91-.46-2.75-.83l.62-3.92c.82.31 1.63.54 2.41.69.78.14 1.66.2 2.63.2zm.87-8.64c.91 0 1.69-.17 2.36-.5.68-.35 1.22-.81 1.62-1.38v-2.89c0-1.98-.35-3.48-1.04-4.51-.7-1.03-1.64-1.54-2.82-1.54-1.09 0-1.98.54-2.68 1.61-.68 1.07-1.02 2.35-1.02 3.86 0 1.64.31 2.93.91 3.9.62.96 1.51 1.45 2.67 1.45z"/><path d="m2400.92 1325v-3.54l8.74-9.37c1.26-1.45 2.16-2.67 2.69-3.66.53-1 .8-1.93.8-2.78 0-1.14-.31-2.07-.93-2.79-.6-.73-1.47-1.09-2.6-1.09-1.25 0-2.2.43-2.85 1.28-.65.84-.97 1.97-.97 3.38h-5.27l-.04-.11c-.06-2.44.74-4.5 2.4-6.18 1.67-1.7 3.91-2.55 6.73-2.55 2.79 0 4.98.73 6.57 2.18 1.6 1.44 2.4 3.37 2.4 5.78 0 1.64-.46 3.15-1.36 4.53-.89 1.39-2.37 3.19-4.45 5.42l-4.81 5.25.04.09h7.01l.23-2.67h4.11v6.83zm38.21-10.52c0 3.57-.83 6.29-2.47 8.14-1.63 1.85-3.85 2.77-6.64 2.77-2.82 0-5.06-.92-6.7-2.77-1.65-1.85-2.47-4.57-2.47-8.14v-5.96c0-3.56.82-6.27 2.45-8.12 1.65-1.87 3.87-2.81 6.68-2.81 2.8 0 5.02.94 6.66 2.81 1.66 1.85 2.49 4.56 2.49 8.12zm-5.4-6.51c0-2.14-.32-3.71-.97-4.7-.64-1-1.57-1.5-2.78-1.5-1.22 0-2.15.49-2.78 1.48s-.95 2.56-.95 4.72v7.03c0 2.18.32 3.76.95 4.75.64.99 1.58 1.48 2.82 1.48 1.21 0 2.13-.49 2.76-1.48s.95-2.57.95-4.75zm6.86 17.03v-3.54l8.74-9.37c1.27-1.45 2.16-2.67 2.69-3.66.54-1 .8-1.93.8-2.78 0-1.14-.31-2.07-.93-2.79-.6-.73-1.47-1.09-2.59-1.09-1.25 0-2.21.43-2.86 1.28-.64.84-.97 1.97-.97 3.38h-5.27l-.03-.11c-.06-2.44.73-4.5 2.39-6.18 1.67-1.7 3.92-2.55 6.74-2.55 2.78 0 4.97.73 6.56 2.18 1.6 1.44 2.4 3.37 2.4 5.78 0 1.64-.45 3.15-1.36 4.53-.89 1.39-2.37 3.19-4.45 5.42l-4.8 5.25.03.09h7.02l.22-2.67h4.12v6.83zm38.21-10.52c0 3.57-.82 6.29-2.47 8.14-1.63 1.85-3.84 2.77-6.64 2.77-2.82 0-5.05-.92-6.7-2.77-1.64-1.85-2.47-4.57-2.47-8.14v-5.96c0-3.56.82-6.27 2.45-8.12 1.65-1.87 3.87-2.81 6.68-2.81 2.8 0 5.02.94 6.66 2.81 1.66 1.85 2.49 4.56 2.49 8.12zm-5.4-6.51c0-2.14-.32-3.71-.96-4.7-.65-1-1.58-1.5-2.79-1.5-1.22 0-2.15.49-2.78 1.48s-.95 2.56-.95 4.72v7.03c0 2.18.32 3.76.95 4.75.64.99 1.58 1.48 2.82 1.48 1.21 0 2.13-.49 2.76-1.48.64-.99.95-2.57.95-4.75z"/></g><g filter="url(#a)"><path d="m217 1006.5 22.6-30.5 59.7-37.2h23.9l19.9-15.9 19.9-11.9h15.9l59.7-23.9 25.3-23.9 18.5-27.9 41.2-41.1 21.2-5.3 25.2-18.6 17.3-18.6 22.5 5.3 41.2-53.1 62.4-35.8 21.2-67.7 17.3-38.5 21.2-6.6 21.2 25.2 21.3-25.2h39.8l19.9-31.9 22.5-22.5 16-27.9 23.9 30.5 18.5-10.6 21.3-81 19.9-25.2 19.9 30.6 27.9 18.5 35.8 10.7h19.9l21.2-21.3 20-4 21.2-47.7 21.2 46.4 21.3 10.6 19.9-92.9 17.2-19.9 21.3 12h22.5l22.6-12 19.9 26.6 18.6-17.3 22.5 15.9 18.6-25.2 21.2-17.2 21.3 39.8 21.2-17.3 19.9-88.9h22.6l18.6-25.2 14.6 9.3 27.8 49.1 18.6-10.6 17.3-1.4h21.2l23.9-46.4 26.5 30.5 17.3 4 19.9-15.9 17.2-50.5 17.3-18.5 23.9-14.6 43.8 39.8 19.9-17.3 18.6 26.6 22.5-8 17.3-19.9 22.6 2.6 22.5 43.8 19.9 13.3 21.3-59.7 18.5-43.8h23.9l16 53.1h23.8l22.6 9.3 18.6 37.1 38.5-45.1 34.5 27.9 25.2 15.9 25.2-90.2 19.9-20 21.3 27.9 19.9 61.1h34.5l26.5 22.5 22.6-23.9 19.9-10.6 18.6-54.4 23.9 63.7 18.5 22.6 21.3-102.2 21.2 13.3 19.9-90.3" stroke="#0095ff" stroke-linecap="round" stroke-linejoin="round" stroke-miterlimit="10" stroke-width="6"/></g></svg>